<?xml version="1.0" encoding="utf-8"?>
<!-- Generator: Adobe Illustrator 23.0.0, SVG Export Plug-In . SVG Version: 6.00 Build 0)  -->
<svg version="1.1" id="Layer_1" xmlns="http://www.w3.org/2000/svg" xmlns:xlink="http://www.w3.org/1999/xlink" x="0px" y="0px"
	 viewBox="0 0 167.8 199.8" style="enable-background:new 0 0 167.8 199.8;" xml:space="preserve">
<style type="text/css">
	.st0{fill:#0F0D0B;}
	.st1{fill:#2B231B;}
	.st2{fill:#9A55BF;}
	.st3{fill:#BF70E0;}
	.st4{fill:#62268B;}
	.st5{opacity:0.81;fill:#E80566;}
	.st6{fill:#FCC088;}
	.st7{fill:#E8B185;}
	.st8{display:none;fill:#232323;}
	.st9{fill:#332519;}
	.st10{fill:#493322;}
</style>
<g>
	<path class="st0" d="M86.3,171.1l0,3.2c0,0,1.6,2.4,4.1,3.7c0-0.8,0-0.8,0-0.8s4.6,6.5,9.2,6.4c3.7-0.1,6.2-0.3,5.9-4.7
		C105.3,174.5,86.3,171.1,86.3,171.1z"/>
	<path class="st1" d="M97.9,169.9c0,0,5.8,5.6,7.1,7.5c1.3,1.9,0.8,7.3-7.2,5.2c-3.7-1.3-5.2-4.3-6.2-5.6c-0.7-0.9-3.8-3.8-5.5-5.4
		c-0.7-0.7-1.3-1.1-1.3-1.1S87.3,166.4,97.9,169.9z"/>
</g>
<path class="st2" d="M47.8,104.2c0,0-2.4,14.9,12.5,21.1c16.4,6.9,16.2,8.5,16.2,8.5s2.3,11.7,4.1,21.1c1.9,9.4,3.6,16.1,3.6,16.1
	s7.7,3.1,14.3-0.7c0,0-4.2-11.4-5.4-17.3c-1.2-5.9-2.4-19.4-2.4-19.4s0.2-11.4-9.8-16.9c-10.1-5.6-11.3-12.9-11.3-12.9L47.8,104.2z"
	/>
<g>
	<path class="st0" d="M99.6,163.1c0,0-0.5,2.9,0.3,3.6c0.8,0.6,4.5,1.1,6,1.2c0.5-1.2,0.3-1.4,0.3-1.4s2.2,0.5,4,1
		c2.1,0.6,10.3,3.4,11.9,2.9c1.6-0.4,2.2-2,1.5-3.3C122.8,165.7,99.6,163.1,99.6,163.1z"/>
	<path class="st1" d="M111.9,159.1c0,0,3.3,2.5,7.6,3.8c4.3,1.3,4.2,4.7,4,4.9c-0.2,0.3-1.4,1.8-4.7,1c-3.3-0.8-5.6-1.6-8-2.3
		c-1.6-0.5-2.3-0.4-4.7-1.2c-2.2-0.7-6.9-1.5-6.8-2.1C99.5,162.7,109.5,158.7,111.9,159.1z"/>
</g>
<path class="st2" d="M75.6,95.2c0,0,20.3,9.4,30.8,16c3.9,3,5.5,8.6,4.8,14.9c-0.6,6.2-0.7,29.7,1.5,33.6c0,0-7.7,4.4-13.6,4.1
	c0,0-0.4-10.8-1.1-22.1c-0.7-11.3,0.2-18.9,0.2-18.9s-12.6-3.1-26.5-11.8l-5.3-7.1L75.6,95.2z"/>
<path class="st2" d="M49.9,48.4l20.7-1.1l6.4,49.2c0,0-3.8,6.4-11.5,7.4l-8.5-18L49.9,48.4z"/>
<polygon class="st3" points="66.3,54.1 64.6,56.6 61.8,55 62.7,50.2 "/>
<path class="st3" d="M64.9,55.7c0,0,7,13.9,7.7,28.5L71,88.1l-2.5-3c0,0,0.4-14.3-4.5-29.3L64.9,55.7z"/>
<polygon class="st3" points="62.1,51.4 62.9,57.7 52.4,51 53.6,48.5 "/>
<polygon class="st3" points="62.7,50.2 67.5,56 67.4,51.9 "/>
<polygon class="st4" points="62.7,50.4 62.4,56.7 52.4,50.6 51.6,43.6 55.5,40.2 "/>
<polygon class="st4" points="62.7,50.4 67.3,55.1 69.1,47.6 69.6,43.6 65.1,42.6 "/>
<g>
	<path class="st3" d="M67.7,41.3c0.3,0.7,0.7,2.6,1.1,4.9c0.9,5,2,12.1,2.1,14.8c0.2,4.1,2.3,13.8,3,19.5c0.1,1,0.3,2.3,0.5,3.8l0,0
		C75.3,91.8,77,104,77,104c3.3-1,6.4-6.7,6.4-6.7s-5.8-10.6-6.5-23.1C76.3,48.4,67.7,41.3,67.7,41.3z"/>
	<path class="st3" d="M68.7,44l0.1,2.2c0.9,5,2,12.1,2.1,14.8c0.2,4.1,2.3,13.8,3,19.5c0.1,1,0.3,2.3,0.5,3.8l0,0l0,0
		c0,0,0.4-6.9-0.2-13.5c-0.6-6.5-0.7-12.6-0.7-12.6l-2.2-1.1l1.1-1.9L68.7,44z"/>
</g>
<g>
	<path class="st3" d="M48.5,83.1c-0.6,13.6-2.2,24.2-2.2,24.2s8.6,6.4,23.3,0.5c0,0-1.2-11.3-2.3-20.7c-0.6-5.1-1.2-9.7-1.6-11.6
		c-1.2-5.5-7.9-18.2-11-22.9c-3-4.5-2.8-8.8-2.8-9.3c0,0,0-0.1,0-0.1s0,0,0,0c0,0,0,0,0,0c-0.6,0.5-8.1,6.3-11.2,15.3
		C40.9,62.9,49.2,69.5,48.5,83.1z"/>
	<path class="st3" d="M56.5,62l2.3,0.4l-1.4,3.4l9.9,21.4c-0.6-5.1-1.2-9.7-1.6-11.6c-1.2-5.5-7.9-18.2-11-22.9
		c-3-4.5-2.8-8.8-2.8-9.3l0,0l0,0c0,0,0,0,0,0C51.9,43.8,51.7,50.7,56.5,62z"/>
</g>
<path class="st3" d="M108,100.9l-18.3-9.6c-0.8-0.4-1.7-0.4-2.5,0.1l-26.4,16.8l-0.1-0.6l-0.9,0l0.1,1.9c0,0,0,0,0,0l0,0l0,0
	c0,0.4,0.3,0.9,0.7,1.1L79,120c1,0.5,2.2,0.4,3.1-0.2l26-16.9C108.9,102.4,108.8,101.3,108,100.9z"/>
<path class="st5" d="M60.4,106.7l26.8-17c0.7-0.5,1.7-0.5,2.5-0.1l18.3,9.6c0.8,0.4,0.8,1.5,0.1,2l-26,16.9
	c-0.9,0.6-2.1,0.7-3.1,0.2L60.5,109C59.6,108.5,59.6,107.2,60.4,106.7z"/>
<g>
	<polygon class="st3" points="73.5,108.3 74.8,109 73,110.2 71.7,109.5 	"/>
	<polygon class="st3" points="75.5,107 76.9,107.7 75.2,108.8 73.9,108.1 	"/>
	<polygon class="st3" points="77.5,105.7 78.8,106.4 77.2,107.5 75.9,106.8 	"/>
	<polygon class="st3" points="86.5,99.9 87.9,100.5 79.2,106.2 79.2,106.2 77.9,105.5 	"/>
	<polygon class="st3" points="88.5,98.6 89.9,99.2 88.2,100.3 86.9,99.6 	"/>
	<polygon class="st3" points="90.5,97.3 91.8,98 90.2,99 90.2,99 88.9,98.3 	"/>
	<polygon class="st3" points="94.3,96.4 92.2,97.7 90.9,97.1 93,95.7 	"/>
	<polygon class="st3" points="76.4,108.6 77.7,109.3 74.9,111.2 73.6,110.5 	"/>
	<polygon class="st3" points="78.4,107.4 79.7,108 78.1,109.1 76.8,108.4 	"/>
	<polygon class="st3" points="80.3,106.1 81.6,106.8 80.1,107.8 78.7,107.1 	"/>
	<polygon class="st3" points="82.2,104.9 83.5,105.6 82,106.6 80.6,105.9 	"/>
	<polygon class="st3" points="84.1,103.6 85.4,104.3 83.9,105.3 82.5,104.7 	"/>
	<polygon class="st3" points="86,102.4 87.4,103.1 85.8,104.1 85.8,104.1 84.5,103.4 	"/>
	<polygon class="st3" points="88,101.1 89.3,101.8 87.7,102.8 86.4,102.2 	"/>
	<polygon class="st3" points="89.8,99.9 91.2,100.6 89.6,101.6 89.6,101.6 88.3,100.9 	"/>
	<polygon class="st3" points="91.7,98.7 93.1,99.4 91.5,100.4 90.2,99.7 	"/>
	<polygon class="st3" points="96.2,97.3 93.4,99.1 92.1,98.5 94.9,96.7 	"/>
	<polygon class="st3" points="77.6,110.4 78.7,110.9 76.8,112.1 75.5,111.5 77.4,110.2 	"/>
	<polygon class="st3" points="79.6,109.1 80.7,109.6 79.1,110.7 78,110.1 77.7,110 79.3,109 	"/>
	<polygon class="st3" points="81.5,107.9 82.6,108.4 81,109.4 80,108.9 79.7,108.7 81.3,107.7 	"/>
	<polygon class="st3" points="83.4,106.6 84.5,107.2 82.9,108.2 82.9,108.2 81.9,107.6 81.6,107.5 83.2,106.5 	"/>
	<polygon class="st3" points="85.3,105.4 86.4,105.9 84.8,106.9 83.8,106.4 83.5,106.3 85.1,105.2 	"/>
	<polygon class="st3" points="87.3,104.1 88.3,104.7 86.7,105.7 85.7,105.2 85.7,105.2 85.4,105 87,104 	"/>
	<polygon class="st3" points="89.2,102.9 90.2,103.4 88.7,104.4 87.6,103.9 87.4,103.8 88.9,102.7 	"/>
	<polygon class="st3" points="91.1,101.7 92.1,102.2 90.6,103.2 89.5,102.7 89.5,102.7 89.3,102.5 90.8,101.5 	"/>
	<polygon class="st3" points="93,100.4 94,101 92.5,102 91.4,101.4 91.1,101.3 92.7,100.3 	"/>
	<polygon class="st3" points="98.1,98.3 94.4,100.7 93.3,100.2 93,100.1 96.8,97.6 	"/>
	<polygon class="st3" points="79.2,111.7 80.1,112.2 78.7,113.1 77.3,112.4 78.7,111.5 78.9,111.6 	"/>
	<polygon class="st3" points="81.1,110.4 82,110.9 80.4,111.9 79.5,111.5 79.2,111.3 79.1,111.3 80.7,110.2 80.9,110.3 	"/>
	<polygon class="st3" points="83,109.2 83.9,109.7 82.4,110.7 81.5,110.2 81.2,110.1 81.1,110 82.6,109 82.8,109.1 	"/>
	<polygon class="st3" points="84.9,108 85.8,108.4 84.3,109.4 83.4,109 83.1,108.8 83.1,108.8 83,108.8 84.5,107.8 84.5,107.8 
		84.7,107.8 	"/>
	<polygon class="st3" points="86.9,106.7 87.8,107.2 86.2,108.2 85.3,107.7 85,107.6 84.9,107.5 86.4,106.5 86.6,106.6 	"/>
	<polygon class="st3" points="88.8,105.5 89.7,105.9 88.1,107 87.2,106.5 87.2,106.5 86.9,106.4 86.8,106.3 88.4,105.3 88.5,105.3 	
		"/>
	<polygon class="st3" points="90.7,104.2 91.6,104.7 90,105.7 89.1,105.2 88.9,105.1 88.7,105 90.3,104 90.3,104 90.4,104.1 	"/>
	<polygon class="st3" points="92.6,103 93.5,103.5 92,104.5 91.1,104 91.1,104 90.8,103.9 90.6,103.8 92.2,102.8 92.3,102.9 	"/>
	<polygon class="st3" points="94.5,101.8 95.4,102.2 93.8,103.3 92.9,102.8 92.6,102.6 92.5,102.6 94.1,101.6 94.2,101.6 	"/>
	<polygon class="st3" points="100,99.3 95.7,102 94.8,101.5 94.6,101.4 94.4,101.3 98.6,98.6 	"/>
	<polygon class="st3" points="81.7,112.1 82.8,112.6 80.5,114.1 79.2,113.4 81.4,112 81.5,112 	"/>
	<polygon class="st3" points="83.6,110.8 84.7,111.4 83.1,112.4 82,111.8 81.9,111.8 81.8,111.7 83.4,110.7 83.5,110.7 	"/>
	<polygon class="st3" points="85.6,109.6 86.7,110.1 85.1,111.1 84,110.6 83.8,110.5 83.8,110.5 85.3,109.4 85.4,109.5 	"/>
	<polygon class="st3" points="87.5,108.3 88.6,108.9 87,109.9 85.9,109.3 85.9,109.3 85.8,109.3 85.7,109.2 87.2,108.2 87.3,108.2 
		87.3,108.2 87.4,108.3 	"/>
	<polygon class="st3" points="89.4,107.1 90.5,107.6 88.9,108.7 87.8,108.1 87.7,108 87.6,108 89.1,107 89.2,107 	"/>
	<polygon class="st3" points="91.3,105.8 92.4,106.4 90.8,107.4 89.7,106.9 89.6,106.8 89.5,106.7 91.1,105.7 91.2,105.8 	"/>
	<polygon class="st3" points="93.2,104.6 94.3,105.1 92.7,106.2 91.6,105.6 91.5,105.5 91.4,105.5 93,104.5 93.1,104.5 	"/>
	<polygon class="st3" points="95.1,103.4 96.2,103.9 94.7,104.9 93.6,104.4 93.4,104.3 93.3,104.2 94.9,103.3 94.9,103.3 	"/>
	<polygon class="st3" points="97,102.1 98.1,102.7 96.5,103.7 95.4,103.1 95.3,103.1 95.2,103 96.8,102 96.8,102 96.9,102.1 	"/>
	<polygon class="st3" points="101.8,100.3 98.4,102.5 97.3,101.9 97.2,101.8 97.1,101.8 100.5,99.6 	"/>
</g>
<path class="st6" d="M86,85.5c0,0,1,2.1,0.7,3.1c-0.3,1-0.4,2.7-0.3,3.9c0.1,1,1.2,3.1,1.2,3.1s0.8,0.6,1.2,0.1
	c0.5-0.5,0.2-1.2,0-1.5c-0.3-0.3-0.5-0.8-0.4-1.6c0.1-0.7,0.3-0.9,0.3-0.9s0.5,0.5,0.9,1.7c0.6,1.9,0.8,3.1,0.9,4.5
	c0.1,1.1,1.2,1.1,1.5,0.7c0.2-0.3,0.4-1,0.1-2c-0.4-0.9-0.6-2.7-0.6-3.1c0-0.4-0.2-1.2,0.1-1c0.3,0.2,0.7,1.7,0.7,2.1
	c0,0.4,0.8,2.8,1.2,2.9c0.6,0.2,1.3-0.8,1-1.9c-0.3-1.1-1.2-3.2-1.2-3.2s0.1-0.6,0.6,0c0.5,0.5,0.9,1.9,1.2,2.2
	c0.6,0.6,1.4,0,1.2-1.2c-0.3-1.2-1.4-2.3-1.5-2.6c-0.1-0.3,0.7,0.3,0.8,0.4c0.1,0.1,0.9,0.9,1.1,0.9c1,0.2,1-0.4,0.3-1.3
	c-0.7-0.9-1.5-1.5-2.4-2.4c-0.9-1-3.9-4.7-4.1-5.2C90.5,83.3,87.9,83.2,86,85.5z"/>
<path class="st3" d="M119.8,79.4l-0.5-0.3c0,0,0,0,0,0l0,0l0,0c-0.2-0.1-0.4-0.1-0.7,0L92.7,96.3c-0.4,0.3-0.8,0.7-1,1.1l-11.4,21.2
	l0.6,0.4l1.5-1.5l-0.4-0.1l26.5-17.1l10.9-20.4c0.1-0.1,0.1-0.3,0.1-0.4L119.8,79.4z"/>
<path class="st2" d="M80.8,119l11.4-21.2c0.2-0.5,0.6-0.9,1-1.1l25.9-17.2c0.5-0.4,1.2,0.2,0.9,0.8l-11,20.5L80.8,119z"/>
<polygon class="st3" points="71.7,102 77.1,104.8 85.2,99.4 79.8,96.7 "/>
<path class="st3" d="M90.8,81.8l1.7,2.6c0,0-4.2,0.4-6.2,3.4l-1.8-2.3C84.5,85.4,86.6,82.9,90.8,81.8z"/>
<path class="st2" d="M68,41.6c1.5,1.6,8.2,9.6,8.8,32c3,5.8,7.7,12.7,7.7,12.7c1.2-3.3,7.1-4.2,7.1-4.2S80.5,63.5,79.4,61.2
	c-1.2-2.3-1.2-6.3-2.2-9.3C74.3,43,68,41.6,68,41.6L68,41.6z"/>
<g>
	<path class="st7" d="M54.8,39.5c0,0-0.4,3.4-0.8,4.5c-0.4,1.2,2.1,6.5,6.9,6.9c1.4-0.1,3.4,0.2,3.5-3L54.8,39.5z"/>
	<path class="st6" d="M72.1,32.7c0,0-0.2,6.2-0.5,8.5c-0.4,2.3-2.3,7.3-5.6,8.2c-2.9,0.7-4.7-0.7-6.4-2.4c-1.6-1.7-3.6-5.3-3.8-6.3
		c0,0-1.3,0.4-2.7-1c-1.4-1.4-2.1-3.2-0.9-4.2C53.5,34.4,62,23.8,72.1,32.7z"/>
	<path class="st8" d="M54.5,37c1.2,2.2,1.2,2.2,1.2,2.2l1.3-0.1l-0.7-3.3c0,0,0.1-1.6,1.4-1.3c0,0,0,0,0,0c0.1,0,0.3,0.1,0.4,0.1
		c1.7,0.7,12.8,5.7,15-2.7c0.2-0.8,0.1-1.8-0.1-2.8c0,0,0,0,0,0c-0.6-2.1-2.2-4.6-5.5-6.6c-4.8-3-11.8-4-15.2-1.5
		C48.8,23.7,47.1,31.7,54.5,37z"/>
	<path class="st9" d="M71.8,26.3c0,0-9-12.7-18.5-4.9c0,0-4.4,1.9-4.1,6.1c0.2,4,0.8,5.2,5.3,9.5l1.2,2.2l1.3-0.1l-0.6-2.7
		c0,0-0.9-2.7,3.8-2.5c4.7,0.2,12.2-0.8,12.2-0.8l0.9-2.7C73.2,30.4,73.1,28,71.8,26.3z"/>
	<path class="st10" d="M55.9,31.7c0,0,1.1,2.5,1.8,2.8c0,0,0,0,0,0c0.1,0,0.3,0.1,0.4,0.1c1.7,0.7,12.8,5.7,15-2.7
		c0.2-0.8,0.1-1.8-0.1-2.8c-0.1,0.1-2.3,3-6.6,0.8c0,0,0.3,1.7,1.1,2.2c0,0-3.8,0.8-5.9-1.7c0,0,0.1,1.1,0.9,2.5
		C62.6,32.9,57.7,33.2,55.9,31.7z"/>
</g>
<path class="st6" d="M62.5,105.2c0,0,2.5,2.1,5,2.9c2.4,0.8,2.6,1.6,3.6,1.9c1,0.2,2.4-0.4,1.2-1.4c-1.1-1-1.3-1.2-1.3-1.2
	s-0.5-1.5,0.7-0.5c1.2,1,2.3,1.7,3,1.1c0.7-0.5-0.5-1.7-1-2.1c-0.5-0.4-1.7-1.1-1.7-1.1s0-0.3,0.9-0.5c0.7-0.1,1.8,0.8,2.2,1.3
	c0.4,0.6,1.1,1.2,1.5,0.9c0.4-0.3,0.5-0.7,0.3-1.5c-0.2-0.8-1.1-1.4-1.4-1.7c-0.3-0.3-0.2-0.6,0.8-0.3c1,0.4,2.6,0.8,2.6,0.8
	s2.2,0.9,1.3-0.6c-0.7-1-3-1.9-3.8-2c-0.8-0.1-3.3-0.9-6-0.7c-2.8,0.2-6.1,0.3-6.1,0.3L62.5,105.2z"/>
<path class="st3" d="M63.1,99.6l2.2,1.1c0,0-0.1,5.1-2.8,6.6l-2.5-1.1L63.1,99.6z"/>
<path class="st2" d="M38.4,63.9c0,0,1.9-9.7,8.6-7.8c6.7,1.8,7.4,11.9,4.5,14c-2.9,2.1-5.3,14.1-5,17.6c0.3,3.6,2.3,4.2,4,4.8
	c1.7,0.6,13,7,13,7s-0.3,5.2-3,7.2l-19.2-7.9c0,0-5.3-1.3-4.9-10.3C36.9,79.6,38.4,63.9,38.4,63.9z"/>
</svg>
