<?xml version="1.0" encoding="iso-8859-1"?>
<!-- Generator: Adobe Illustrator 21.0.0, SVG Export Plug-In . SVG Version: 6.00 Build 0)  -->
<svg version="1.1" id="Capa_1" xmlns="http://www.w3.org/2000/svg" xmlns:xlink="http://www.w3.org/1999/xlink" x="0px" y="0px"
	 viewBox="0 0 512.006 512.006" style="enable-background:new 0 0 512.006 512.006;" xml:space="preserve">
<g>
	<g>
		<path style="fill:#4482C3;" d="M273.069,12.783h-34.133c-37.703,0-68.267,30.564-68.267,68.267v17.067h170.667V81.05
			C341.336,43.347,310.772,12.783,273.069,12.783z"/>
		<path style="fill:#4482C3;" d="M230.403,447.983h51.2v42.667c0,9.426-7.641,17.067-17.067,17.067h-17.067
			c-9.426,0-17.067-7.641-17.067-17.067V447.983z"/>
	</g>
	<g>
		<path style="fill:#2C3E50;" d="M341.336,115.183h65.707c2.699-0.001,5.239,1.275,6.85,3.441c1.611,2.166,2.102,4.966,1.325,7.55
			c-6.912,23.057-27.571,74.342-73.882,74.342H170.669c-46.31,0-66.97-51.285-73.924-74.342c-0.78-2.592-0.283-5.4,1.337-7.568
			c1.621-2.168,4.174-3.438,6.88-3.423H341.336z"/>
		<path style="fill:#2C3E50;" d="M341.336,234.65h65.707c2.699-0.001,5.239,1.275,6.85,3.441c1.611,2.166,2.102,4.966,1.325,7.55
			c-6.912,23.057-27.571,74.342-73.882,74.342H170.669c-46.31,0-66.97-51.285-73.924-74.342c-0.78-2.592-0.283-5.4,1.337-7.568
			c1.621-2.168,4.174-3.438,6.88-3.423H341.336z"/>
		<path style="fill:#2C3E50;" d="M341.336,354.117h65.707c2.699-0.001,5.239,1.275,6.85,3.441c1.611,2.166,2.102,4.966,1.325,7.55
			c-6.912,23.057-27.571,74.342-73.882,74.342H170.669c-46.31,0-66.97-51.285-73.924-74.342c-0.78-2.592-0.283-5.4,1.337-7.568
			c1.621-2.168,4.174-3.438,6.88-3.423H341.336z"/>
	</g>
	<path style="fill:#285680;" d="M170.669,81.05h170.667v373.76c0,4.979-1.978,9.754-5.499,13.275
		c-3.521,3.521-8.296,5.499-13.275,5.499h-133.12c-4.979,0-9.754-1.978-13.275-5.499c-3.521-3.521-5.499-8.296-5.499-13.275V81.05z"
		/>
	<circle style="fill:#E64C3C;" cx="256.003" cy="157.85" r="42.667"/>
	<circle style="fill:#F0C419;" cx="256.003" cy="277.317" r="42.667"/>
	<circle style="fill:#26B99A;" cx="256.003" cy="396.783" r="42.667"/>
	<g>
		<path style="fill:#46B29D;" d="M49.334,7.45c-0.119-0.145-0.299-0.213-0.427-0.35c-0.519-0.579-1.116-1.081-1.775-1.493
			c-0.297-0.186-0.605-0.354-0.922-0.503c-0.247-0.102-0.452-0.282-0.717-0.375c-0.406-0.107-0.82-0.181-1.237-0.222
			c-0.314-0.08-0.634-0.14-0.956-0.179c-0.942-0.078-1.891,0-2.807,0.23h-0.162c-0.98,0.302-1.899,0.776-2.714,1.399
			c-0.068,0.085-0.196,0.094-0.282,0.162c-0.085,0.068-0.239,0.341-0.401,0.486c-0.33,0.261-0.641,0.547-0.93,0.853L1.872,50.125
			c-2.946,3.681-2.35,9.052,1.331,11.998c3.681,2.946,9.052,2.35,11.998-1.331l18.935-23.68v95.138c0,4.713,3.821,8.533,8.533,8.533
			s8.533-3.821,8.533-8.533V37.103l18.935,23.68c1.905,2.381,4.936,3.565,7.951,3.105c3.015-0.46,5.555-2.493,6.665-5.333
			c1.109-2.841,0.619-6.057-1.287-8.438L49.334,7.45z"/>
		<path style="fill:#46B29D;" d="M49.334,271.983c-0.119-0.145-0.299-0.213-0.427-0.35c-0.519-0.579-1.116-1.081-1.775-1.493
			c-0.299-0.185-0.61-0.35-0.93-0.495c-0.247-0.111-0.444-0.29-0.708-0.384c-0.404-0.104-0.814-0.178-1.229-0.222
			c-0.32-0.08-0.645-0.14-0.973-0.179c-0.939-0.078-1.885,0-2.799,0.23h-0.162c-0.981,0.295-1.901,0.767-2.714,1.391
			c-0.085,0.068-0.196,0.077-0.282,0.145s-0.239,0.333-0.401,0.486c-0.33,0.261-0.641,0.547-0.93,0.853L1.872,314.633
			c-1.905,2.381-2.396,5.598-1.287,8.438s3.65,4.874,6.665,5.333c3.015,0.46,6.046-0.724,7.951-3.105l18.935-23.654v95.138
			c0,4.713,3.821,8.533,8.533,8.533s8.533-3.821,8.533-8.533v-95.147l18.935,23.68c2.946,3.681,8.317,4.277,11.998,1.331
			c3.681-2.946,4.277-8.317,1.331-11.998L49.334,271.983z"/>
		<path style="fill:#46B29D;" d="M441.867,60.783l18.935-23.671v95.138c0,4.713,3.821,8.533,8.533,8.533s8.533-3.821,8.533-8.533
			V37.103l18.935,23.68c2.945,3.681,8.317,4.277,11.998,1.331c3.681-2.946,4.277-8.317,1.331-11.998L476.001,7.45
			c-0.119-0.145-0.299-0.213-0.427-0.35c-0.519-0.579-1.116-1.081-1.775-1.493c-0.297-0.186-0.605-0.354-0.922-0.503
			c-0.247-0.111-0.452-0.29-0.717-0.384c-0.407-0.106-0.82-0.183-1.237-0.23c-0.315-0.073-0.634-0.13-0.956-0.171
			c-0.942-0.078-1.891,0-2.807,0.23h-0.162c-0.981,0.304-1.9,0.781-2.714,1.408c-0.085,0.068-0.196,0.077-0.282,0.145
			c-0.085,0.068-0.239,0.333-0.401,0.486c-0.33,0.261-0.641,0.547-0.93,0.853l-34.133,42.667c-1.905,2.381-2.396,5.598-1.287,8.438
			c1.109,2.841,3.65,4.874,6.665,5.333c3.015,0.46,6.046-0.724,7.951-3.105V60.783z"/>
		<path style="fill:#46B29D;" d="M476.001,271.983c-0.119-0.145-0.299-0.213-0.427-0.35c-0.519-0.579-1.116-1.081-1.775-1.493
			c-0.299-0.185-0.61-0.35-0.93-0.495c-0.247-0.111-0.444-0.29-0.708-0.384c-0.404-0.104-0.814-0.178-1.229-0.222
			c-0.32-0.08-0.645-0.14-0.973-0.179c-0.939-0.078-1.885,0-2.799,0.23h-0.162c-0.983,0.295-1.903,0.769-2.714,1.399
			c-0.085,0.06-0.196,0.068-0.282,0.137s-0.239,0.333-0.401,0.478c-0.328,0.264-0.639,0.549-0.93,0.853l-34.133,42.667
			c-1.905,2.381-2.396,5.598-1.287,8.438s3.65,4.874,6.665,5.333c3.015,0.46,6.046-0.724,7.951-3.105l18.935-23.646v95.138
			c0,4.713,3.821,8.533,8.533,8.533s8.533-3.821,8.533-8.533v-95.147l18.935,23.68c1.905,2.381,4.936,3.565,7.951,3.105
			c3.015-0.46,5.555-2.493,6.665-5.333s0.619-6.057-1.287-8.438L476.001,271.983z"/>
	</g>
</g>
<g>
</g>
<g>
</g>
<g>
</g>
<g>
</g>
<g>
</g>
<g>
</g>
<g>
</g>
<g>
</g>
<g>
</g>
<g>
</g>
<g>
</g>
<g>
</g>
<g>
</g>
<g>
</g>
<g>
</g>
</svg>
