<svg height="512" viewBox="0 0 64 64" width="512" xmlns="http://www.w3.org/2000/svg"><rect fill="#44add8" height="52" rx="3" width="50" x="7" y="3"/><path d="m57 6a3 3 0 0 0 -3-3h-44a3 3 0 0 0 -3 3v5h50z" fill="#3890ce"/><path d="m10 6h2v2h-2z" fill="#eb4042"/><path d="m14 6h2v2h-2z" fill="#fde700"/><path d="m18 6h2v2h-2z" fill="#88bf40"/><path d="m3 17h58v14h-58z" fill="#ffc119"/><path d="m46 17h15v14h-15z" fill="#2275ad"/><path d="m6 26h2v2h-2z" fill="#ea732d"/><path d="m10 26h33v2h-33z" fill="#ea732d"/><path d="m61 50.655v-3.31l-2.776-.694a9.451 9.451 0 0 0 -1.041-2.511l1.473-2.455-2.341-2.341-2.455 1.473a9.686 9.686 0 0 0 -1.136-.577 9.416 9.416 0 0 0 -1.375-.464l-.694-2.776h-3.31l-.694 2.776a9.464 9.464 0 0 0 -2.511 1.041l-2.455-1.473-2.341 2.341 1.473 2.455a9.451 9.451 0 0 0 -1.041 2.511l-2.776.694v3.31l2.776.694a9.464 9.464 0 0 0 1.041 2.511l-1.473 2.455 2.341 2.341 2.455-1.473a9.464 9.464 0 0 0 2.511 1.041l.694 2.776h3.31l.694-2.776a9.464 9.464 0 0 0 2.511-1.041l2.455 1.473 2.341-2.341-1.473-2.455a9.464 9.464 0 0 0 1.041-2.511zm-12 3.345a5 5 0 1 1 5-5 5 5 0 0 1 -5 5z" fill="#ffc119"/><g fill="#a1dbe8"><path d="m11 37h10v2h-10z"/><path d="m11 41h14v2h-14z"/><path d="m11 45h12v2h-12z"/><path d="m11 49h17v2h-17z"/><path d="m23 37h8v2h-8z"/><path d="m33 37h2v2h-2z"/><path d="m27 41h2v2h-2z"/><path d="m30 49h2v2h-2z"/></g><path d="m9 58h22v2h-22z" fill="#ccdce5"/><path d="m61 50.655v-3.31l-2.776-.694a9.451 9.451 0 0 0 -1.041-2.511l1.473-2.455-2.256-2.255a35.9 35.9 0 0 1 -3.448 6.54 4.973 4.973 0 0 1 -6.487 7.318 35.976 35.976 0 0 1 -5.973 4.175l1.192 1.193 2.455-1.473a9.464 9.464 0 0 0 2.511 1.041l.695 2.776h3.31l.694-2.776a9.464 9.464 0 0 0 2.511-1.041l2.455 1.473 2.341-2.341-1.473-2.455a9.464 9.464 0 0 0 1.041-2.511z" fill="#faac2b"/><path d="m57.207 26.293-1.507-1.508a2.951 2.951 0 0 0 .3-1.285 3 3 0 1 0 -3 3 2.951 2.951 0 0 0 1.285-.3l1.508 1.508zm-5.207-2.793a1 1 0 1 1 1 1 1 1 0 0 1 -1-1z" fill="#a1dbe8"/></svg>